<svg width="112" height="32" viewBox="0 0 112 32" fill="none" xmlns="http://www.w3.org/2000/svg">
<path d="M103.206 12.9977L105.102 17.0278L107.1 12.9977H111.74L108.252 19.5L111.909 26.0023H107.303L105.102 21.8706L102.969 26.0023H98.2952L101.987 19.5L98.5322 12.9977H103.206Z" fill="#333333"/>
<path d="M87.585 31.0686C87.0488 31.0686 86.538 31.0263 86.0525 30.9416C85.5671 30.8626 85.141 30.7525 84.7741 30.6114L85.7901 27.2926C86.1739 27.428 86.5238 27.5155 86.8399 27.555C87.1617 27.5945 87.4354 27.5719 87.6612 27.4873C87.8926 27.4026 88.0591 27.2418 88.1607 27.0047L88.2623 26.7676L83.6904 12.9977H88.5671L90.6668 22.0061H90.8022L92.9358 12.9977H97.8464L93.1051 27.2756C92.8681 27.9924 92.5238 28.6359 92.0722 29.206C91.6263 29.7817 91.0393 30.2361 90.3112 30.5691C89.5831 30.9021 88.6743 31.0686 87.585 31.0686Z" fill="#333333"/>
<path d="M74.0069 26.0021V12.9976H78.5449V15.4698H78.6804C78.9175 14.5554 79.2928 13.8866 79.8064 13.4632C80.3257 13.0399 80.9325 12.8283 81.6267 12.8283C81.8299 12.8283 82.0303 12.8452 82.2278 12.8791C82.431 12.9073 82.6258 12.9496 82.812 13.0061V16.9938C82.5806 16.9147 82.2956 16.8555 81.9569 16.816C81.6183 16.7765 81.3276 16.7567 81.0849 16.7567C80.6277 16.7567 80.2156 16.8611 79.8488 17.07C79.4875 17.2732 79.2025 17.561 78.9937 17.9335C78.7848 18.3004 78.6804 18.7322 78.6804 19.2289V26.0021H74.0069Z" fill="#333333"/>
<path d="M71.9324 12.9973V16.3839H63.3643V12.9973H71.9324ZM65.0237 9.92532L69.6972 8.66346V21.8194C69.6972 22 69.7283 22.1524 69.7903 22.2766C69.8524 22.3951 69.9484 22.4854 70.0782 22.5475C70.208 22.604 70.3745 22.6322 70.5777 22.6322C70.7188 22.6322 70.8825 22.6152 71.0688 22.5814C71.2607 22.5475 71.4018 22.5193 71.4921 22.4967L72.1694 25.7817C71.9606 25.8438 71.6614 25.92 71.272 26.0103C70.8882 26.1006 70.431 26.1599 69.9004 26.1881C68.828 26.2445 67.9277 26.1345 67.1996 25.8579C66.4715 25.5757 65.924 25.1326 65.5571 24.5287C65.1902 23.9247 65.0124 23.1684 65.0237 22.2597V9.92532Z" fill="#333333"/>
<path fill-rule="evenodd" clip-rule="evenodd" d="M52.4118 25.4433C53.4165 25.9739 54.6131 26.2392 56.0016 26.2392C57.2038 26.2392 58.2537 26.0585 59.1511 25.6973C60.0542 25.3304 60.7795 24.8168 61.327 24.1564C61.6457 23.7687 61.8965 23.3409 62.0794 22.8729L58.1013 21.8027C58.011 22.0454 57.8699 22.2543 57.678 22.4292C57.486 22.5986 57.2546 22.7284 56.9837 22.8187C56.7184 22.909 56.4249 22.9542 56.1032 22.9542C55.6404 22.9542 55.2453 22.861 54.9179 22.6748C54.5905 22.4885 54.3393 22.2317 54.1644 21.9043C53.9894 21.577 53.9019 21.2044 53.9019 20.7868V20.5836H62.3684V19.4998C62.3684 18.4669 62.216 17.5384 61.9112 16.7144C61.6064 15.8903 61.1718 15.1904 60.6074 14.6147C60.0429 14.0333 59.3628 13.5902 58.5669 13.2855C57.7711 12.9807 56.8821 12.8283 55.9 12.8283C54.5566 12.8283 53.3911 13.1077 52.4033 13.6664C51.4156 14.2252 50.6508 15.007 50.1089 16.0117C49.5671 17.0163 49.2961 18.1904 49.2961 19.5337C49.2961 20.9335 49.5642 22.1357 50.1005 23.1404C50.6423 24.1395 51.4128 24.9071 52.4118 25.4433ZM58.0674 18.0096C58.0618 17.6371 57.9658 17.3097 57.7795 17.0275C57.5989 16.7397 57.3534 16.5167 57.043 16.3587C56.7382 16.195 56.391 16.1132 56.0016 16.1132C55.6234 16.1132 55.2763 16.195 54.9602 16.3587C54.6441 16.5167 54.3901 16.7369 54.1982 17.0191C54.012 17.3013 53.9132 17.6315 53.9019 18.0096H58.0674Z" fill="#333333"/>
<path d="M34.007 26.0019L34.007 9.92544L38.7143 8.66261V15.6728H38.9514L44.1667 8.66261H49.653L43.7942 16.384L49.7885 26.0019H44.1667L40.2722 19.4997L38.7143 21.5316V26.0019H34.007Z" fill="#333333"/>
<path d="M20.1685 5.89641C19.5654 5.89641 18.9847 6.01925 18.4598 6.25377C18.2253 8.04056 17.2649 9.604 15.869 10.6091C16.07 12.8091 17.9126 14.54 20.1685 14.54C22.5583 14.54 24.4903 12.608 24.4903 10.2182C24.4903 7.82838 22.5583 5.89641 20.1685 5.89641Z" fill="#5EB447"/>
<path d="M5.7289 6.13093C5.29337 5.98575 4.81317 5.89641 4.3218 5.89641C1.93197 5.89641 0 7.82838 0 10.2182C0 12.608 1.93197 14.54 4.3218 14.54C6.51062 14.54 8.31974 12.9096 8.59893 10.7989C7.04665 9.77151 5.95224 8.08523 5.7289 6.13093Z" fill="#5EB447"/>
<path d="M12.139 10.8101C15.1242 10.8101 17.5441 8.39016 17.5441 5.40504C17.5441 2.41992 15.1242 0 12.139 0C9.15393 0 6.73401 2.41992 6.73401 5.40504C6.73401 8.39016 9.15393 10.8101 12.139 10.8101Z" fill="#05A448"/>
<path d="M23.2505 14.5736C22.3795 15.1767 21.3186 15.534 20.1795 15.534C19.5206 15.534 18.8952 15.4224 18.3257 15.199C17.8678 15.7909 17.5887 16.5391 17.5887 17.3543C17.5887 19.2975 19.1633 20.8721 21.1064 20.8721C23.0495 20.8721 24.6241 19.2975 24.6241 17.3543C24.6241 16.2264 24.0881 15.2214 23.2505 14.5736Z" fill="#83BC43"/>
<path d="M4.40007 15.545C3.27215 15.545 2.22242 15.1988 1.36252 14.6069C0.5473 15.2546 0.0224304 16.2485 0.0224304 17.3764C0.0224304 19.3196 1.59704 20.8942 3.54017 20.8942C5.48331 20.8942 7.05792 19.3196 7.05792 17.3764C7.05792 16.5612 6.77873 15.8018 6.3097 15.21C5.71782 15.4221 5.07011 15.545 4.40007 15.545Z" fill="#83BC43"/>
<path d="M14.674 13.3227L15.411 12.6257C15.0648 12.0115 14.942 11.4308 14.9085 11.0511C14.8303 11.1181 14.7521 11.1962 14.674 11.2633C14.0263 11.844 13.4679 12.3288 12.9207 12.8425C12.9899 12.9186 13.4726 13.4373 13.9915 14.074C14.3099 14.4647 14.6568 14.9287 14.8862 15.277C14.9532 15.2881 15.8369 15.5237 16.7638 16.1825C16.8643 15.7582 17.0206 15.3003 17.311 14.8424L17.3668 14.7531C16.4846 14.0831 14.674 13.3227 14.674 13.3227Z" fill="#333333"/>
<path d="M13.3731 25.4217C13.3731 25.2207 13.3619 24.5538 13.3731 24.3639C13.3731 21.7288 13.6901 20.1014 12.6655 17.6453C11.0983 13.5016 7.90382 16.0793 7.90382 16.0793L7.88148 16.0123C7.72514 15.4762 7.45712 15.0184 7.27844 14.7503C8.35052 14.0356 9.2243 13.7137 9.97252 13.5016L9.05679 12.7198C9.09029 12.6752 9.1573 12.53 9.1573 12.53C9.45882 11.8823 9.54816 11.3686 9.58166 11.1564C9.65983 11.2457 9.74917 11.3239 9.83851 11.4021C13.937 15.1543 16.5107 16.9069 16.5107 24.6349V27.2288L16.4995 27.374C16.4995 27.5192 16.4883 27.6644 16.4772 27.8207V27.8877C16.466 27.9659 16.466 28.0552 16.4548 28.1334V28.1557L16.4321 28.5684C16.3316 28.5572 13.937 28.4225 13.4792 27.4398C13.3662 27.2167 13.3632 25.7829 13.3731 25.4217Z" fill="#333333"/>
<path d="M11.9723 19.1822C11.5353 21.1713 11.6107 22.1055 11.6107 25.7521C11.6678 29.9084 16.1376 29.6894 16.2518 29.5946C12.4846 31.7494 9.98328 29.685 9.30519 28.7507C8.62711 27.8165 8.67875 26.1186 8.67232 25.3603C8.65725 23.5811 8.67232 22.5726 8.67232 20.7644C8.67232 18.535 9.89538 17.1191 10.571 16.6808C10.571 16.6808 11.8066 17.4493 11.9723 19.1822Z" fill="#333333"/>
</svg>
